<svg width="32" height="32" viewBox="0 0 32 32" fill="none" xmlns="http://www.w3.org/2000/svg">
<rect width="32" height="32" rx="6" fill="#FF3600"/>
<path d="M19.6689 8H12.3311C9.94287 8 8 9.94287 8 12.331V19.669C8 22.0571 9.94287 24 12.3311 24H19.6691C22.0571 24 24 22.0571 24 19.669V12.331C24 9.94287 22.0571 8 19.6689 8ZM23.062 19.669C23.062 21.5399 21.5399 23.062 19.6689 23.062H12.3311C10.4601 23.062 8.93799 21.5399 8.93799 19.669V12.331C8.93799 10.4601 10.4601 8.93799 12.3311 8.93799H19.6691C21.5399 8.93799 23.062 10.4601 23.062 12.331V19.669Z" fill="#F6F6F6"/>
<path d="M16 11.625C13.5876 11.625 11.6251 13.5875 11.6251 15.9999C11.6251 18.4122 13.5876 20.3747 16 20.3747C18.4124 20.3747 20.3749 18.4122 20.3749 15.9999C20.3749 13.5875 18.4124 11.625 16 11.625ZM16 19.4368C14.105 19.4368 12.5631 17.895 12.5631 15.9999C12.5631 14.1049 14.105 12.563 16 12.563C17.8951 12.563 19.4369 14.1049 19.4369 15.9999C19.4369 17.895 17.8951 19.4368 16 19.4368Z" fill="#F6F6F6"/>
<path d="M20.4795 10.0713C19.7666 10.0713 19.1868 10.6512 19.1868 11.364C19.1868 12.0769 19.7666 12.6569 20.4795 12.6569C21.1924 12.6569 21.7723 12.0769 21.7723 11.364C21.7723 10.6511 21.1924 10.0713 20.4795 10.0713ZM20.4795 11.7187C20.2839 11.7187 20.1248 11.5596 20.1248 11.364C20.1248 11.1683 20.2839 11.0093 20.4795 11.0093C20.6752 11.0093 20.8344 11.1683 20.8344 11.364C20.8344 11.5596 20.6752 11.7187 20.4795 11.7187Z" fill="#F6F6F6"/>
</svg>
