<svg width="20" height="20" viewBox="0 0 20 20" fill="none" xmlns="http://www.w3.org/2000/svg">
<mask id="mask0_1533_958" style="mask-type:luminance" maskUnits="userSpaceOnUse" x="7" y="7" width="6" height="6">
<path d="M9.09025 8.60743C9.37804 8.41514 9.71638 8.3125 10.0625 8.3125C10.5266 8.3125 10.9717 8.49687 11.2999 8.82506C11.6281 9.15325 11.8125 9.59837 11.8125 10.0625C11.8125 10.4086 11.7099 10.747 11.5176 11.0347C11.3253 11.3225 11.052 11.5468 10.7322 11.6793C10.4124 11.8117 10.0606 11.8464 9.72109 11.7789C9.38163 11.7114 9.06981 11.5447 8.82506 11.2999C8.58032 11.0552 8.41365 10.7434 8.34613 10.4039C8.2786 10.0644 8.31326 9.71257 8.44571 9.3928C8.57816 9.07303 8.80247 8.79972 9.09025 8.60743ZM9.1597 11.4136C9.42693 11.5922 9.74111 11.6875 10.0625 11.6875C10.4935 11.6875 10.9068 11.5163 11.2115 11.2115C11.5163 10.9068 11.6875 10.4935 11.6875 10.0625C11.6875 9.74111 11.5922 9.42693 11.4136 9.1597C11.2351 8.89247 10.9813 8.68419 10.6844 8.5612C10.3874 8.4382 10.0607 8.40602 9.74548 8.46872C9.43026 8.53142 9.14071 8.68619 8.91345 8.91345C8.68619 9.14071 8.53143 9.43026 8.46873 9.74548C8.40602 10.0607 8.4382 10.3874 8.5612 10.6844C8.68419 10.9813 8.89247 11.2351 9.1597 11.4136Z" fill="white" stroke="white"/>
</mask>
<g mask="url(#mask0_1533_958)">
<path d="M25.3125 18.1484C25.3125 29.4056 16.1868 38.5312 4.92969 38.5312C-6.32743 38.5312 -15.4531 29.4056 -15.4531 18.1484C-15.4531 6.89132 -6.32743 -2.23438 4.92969 -2.23438C16.1868 -2.23438 25.3125 6.89132 25.3125 18.1484Z" fill="white" stroke="white"/>
</g>
<mask id="mask1_1533_958" style="mask-type:luminance" maskUnits="userSpaceOnUse" x="5" y="5" width="11" height="11">
<path d="M12.875 14.625H7.25C6.78587 14.625 6.34075 14.4406 6.01256 14.1124C5.68437 13.7842 5.5 13.3391 5.5 12.875V7.25C5.5 6.78587 5.68437 6.34075 6.01256 6.01256C6.34075 5.68437 6.78587 5.5 7.25 5.5H12.875C13.3391 5.5 13.7842 5.68437 14.1124 6.01256C14.4406 6.34075 14.625 6.78587 14.625 7.25V12.875C14.625 13.3391 14.4406 13.7842 14.1124 14.1124C13.7842 14.4406 13.3391 14.625 12.875 14.625ZM7.25 5.625C6.81902 5.625 6.4057 5.79621 6.10095 6.10095C5.79621 6.4057 5.625 6.81902 5.625 7.25V12.875C5.625 13.306 5.79621 13.7193 6.10095 14.024C6.4057 14.3288 6.81902 14.5 7.25 14.5H12.875C13.306 14.5 13.7193 14.3288 14.024 14.024C14.3288 13.7193 14.5 13.306 14.5 12.875V7.25C14.5 6.81902 14.3288 6.4057 14.024 6.10095C13.7193 5.79621 13.306 5.625 12.875 5.625H7.25Z" fill="white" stroke="white"/>
</mask>
<g mask="url(#mask1_1533_958)">
<path d="M25.3125 18.1484C25.3125 29.4056 16.1868 38.5312 4.92969 38.5312C-6.32743 38.5312 -15.4531 29.4056 -15.4531 18.1484C-15.4531 6.89132 -6.32743 -2.23438 4.92969 -2.23438C16.1868 -2.23438 25.3125 6.89132 25.3125 18.1484Z" fill="white" stroke="white"/>
</g>
<g filter="url(#filter0_d_1533_958)">
<mask id="mask2_1533_958" style="mask-type:luminance" maskUnits="userSpaceOnUse" x="11" y="6" width="3" height="3">
<path d="M12.7969 7.53125C12.7969 7.64343 12.7059 7.73438 12.5938 7.73438C12.4816 7.73438 12.3906 7.64343 12.3906 7.53125C12.3906 7.41907 12.4816 7.32812 12.5938 7.32812C12.7059 7.32812 12.7969 7.41907 12.7969 7.53125Z" fill="white" stroke="white"/>
</mask>
<g mask="url(#mask2_1533_958)">
<path d="M28.6172 20.8034C28.6172 34.9443 17.1538 46.4077 3.01297 46.4077C-11.1278 46.4077 -22.5912 34.9443 -22.5912 20.8034C-22.5912 6.66262 -11.1278 -4.80078 3.01297 -4.80078C17.1538 -4.80078 28.6172 6.66262 28.6172 20.8034Z" fill="white" stroke="white"/>
</g>
</g>
<circle cx="10" cy="10" r="9.5" stroke="white"/>
<defs>
<filter id="filter0_d_1533_958" x="7.89062" y="6.82812" width="9.40625" height="9.40625" filterUnits="userSpaceOnUse" color-interpolation-filters="sRGB">
<feFlood flood-opacity="0" result="BackgroundImageFix"/>
<feColorMatrix in="SourceAlpha" type="matrix" values="0 0 0 0 0 0 0 0 0 0 0 0 0 0 0 0 0 0 127 0" result="hardAlpha"/>
<feOffset dy="4"/>
<feGaussianBlur stdDeviation="2"/>
<feComposite in2="hardAlpha" operator="out"/>
<feColorMatrix type="matrix" values="0 0 0 0 0 0 0 0 0 0 0 0 0 0 0 0 0 0 0.25 0"/>
<feBlend mode="normal" in2="BackgroundImageFix" result="effect1_dropShadow_1533_958"/>
<feBlend mode="normal" in="SourceGraphic" in2="effect1_dropShadow_1533_958" result="shape"/>
</filter>
</defs>
</svg>
