<svg width="16" height="16" viewBox="0 0 16 16" fill="none" xmlns="http://www.w3.org/2000/svg">
<g clip-path="url(#clip0_1791_1046)">
<path d="M8 4C7.47258 4 6.95701 4.1564 6.51848 4.44941C6.07995 4.74243 5.73815 5.15891 5.53632 5.64618C5.33449 6.13345 5.28168 6.66963 5.38457 7.18691C5.48747 7.70419 5.74144 8.17935 6.11438 8.55229C6.48732 8.92523 6.96248 9.1792 7.47976 9.28209C7.99704 9.38499 8.53322 9.33218 9.02049 9.13035C9.50776 8.92851 9.92424 8.58672 10.2173 8.14819C10.5103 7.70966 10.6667 7.19408 10.6667 6.66667C10.6667 5.95942 10.3857 5.28115 9.88562 4.78105C9.38552 4.28095 8.70724 4 8 4ZM8 8C7.73629 8 7.47851 7.9218 7.25924 7.77529C7.03997 7.62878 6.86908 7.42055 6.76816 7.17691C6.66724 6.93328 6.64084 6.66519 6.69229 6.40655C6.74373 6.14791 6.87072 5.91033 7.05719 5.72386C7.24366 5.53739 7.48124 5.4104 7.73988 5.35895C7.99852 5.30751 8.26661 5.33391 8.51025 5.43483C8.75388 5.53574 8.96212 5.70664 9.10863 5.92591C9.25514 6.14517 9.33333 6.40296 9.33333 6.66667C9.33333 7.02029 9.19286 7.35943 8.94281 7.60948C8.69276 7.85952 8.35362 8 8 8Z" fill="white"/>
<path d="M8 15.9999C7.43863 16.0027 6.88474 15.8711 6.38471 15.6159C5.88468 15.3607 5.45306 14.9895 5.126 14.5332C2.58533 11.0285 1.29667 8.39387 1.29667 6.70187C1.29667 4.92403 2.00291 3.21901 3.26003 1.9619C4.51715 0.704777 6.22217 -0.00146484 8 -0.00146484C9.77784 -0.00146484 11.4829 0.704777 12.74 1.9619C13.9971 3.21901 14.7033 4.92403 14.7033 6.70187C14.7033 8.39387 13.4147 11.0285 10.874 14.5332C10.5469 14.9895 10.1153 15.3607 9.61529 15.6159C9.11526 15.8711 8.56137 16.0027 8 15.9999ZM8 1.45387C6.60828 1.45546 5.27401 2.00902 4.28992 2.99312C3.30582 3.97721 2.75226 5.31148 2.75067 6.7032C2.75067 8.0432 4.01267 10.5212 6.30333 13.6805C6.4978 13.9484 6.75291 14.1664 7.04781 14.3167C7.34271 14.467 7.669 14.5454 8 14.5454C8.331 14.5454 8.6573 14.467 8.95219 14.3167C9.24709 14.1664 9.5022 13.9484 9.69667 13.6805C11.9873 10.5212 13.2493 8.0432 13.2493 6.7032C13.2477 5.31148 12.6942 3.97721 11.7101 2.99312C10.726 2.00902 9.39172 1.45546 8 1.45387Z" fill="white"/>
</g>
<defs>
<clipPath id="clip0_1791_1046">
<rect width="16" height="16" fill="white"/>
</clipPath>
</defs>
</svg>
