<svg width="14" height="16" viewBox="0 0 14 16" fill="none" xmlns="http://www.w3.org/2000/svg">
<path d="M7 15.9999C6.43863 16.0027 5.88474 15.8711 5.38471 15.6159C4.88468 15.3607 4.45306 14.9895 4.126 14.5332C1.58533 11.0285 0.296667 8.39387 0.296667 6.70187C0.296667 4.92403 1.00291 3.21901 2.26003 1.9619C3.51715 0.704777 5.22217 -0.00146484 7 -0.00146484C8.77784 -0.00146484 10.4829 0.704777 11.74 1.9619C12.9971 3.21901 13.7033 4.92403 13.7033 6.70187C13.7033 8.39387 12.4147 11.0285 9.874 14.5332C9.54694 14.9895 9.11532 15.3607 8.61529 15.6159C8.11526 15.8711 7.56137 16.0027 7 15.9999ZM7 1.45387C5.60828 1.45546 4.27401 2.00902 3.28992 2.99312C2.30582 3.97721 1.75226 5.31148 1.75067 6.7032C1.75067 8.0432 3.01267 10.5212 5.30333 13.6805C5.4978 13.9484 5.75291 14.1664 6.04781 14.3167C6.34271 14.467 6.669 14.5454 7 14.5454C7.331 14.5454 7.6573 14.467 7.95219 14.3167C8.24709 14.1664 8.5022 13.9484 8.69667 13.6805C10.9873 10.5212 12.2493 8.0432 12.2493 6.7032C12.2477 5.31148 11.6942 3.97721 10.7101 2.99312C9.72599 2.00902 8.39172 1.45546 7 1.45387Z" fill="white"/>
</svg>
