<svg width="10" height="10" viewBox="0 0 10 10" fill="none" xmlns="http://www.w3.org/2000/svg">
<g clip-path="url(#clip0_1201_1501)">
<path d="M3.22189 6.46492H3.22235C3.22273 6.46492 3.22311 6.46484 3.22349 6.46484H8.53515C8.66592 6.46484 8.78089 6.37809 8.81683 6.25236L9.9887 2.1508C10.014 2.06238 9.99625 1.96731 9.94094 1.89392C9.88555 1.82053 9.79896 1.77734 9.70702 1.77734H2.54623L2.33681 0.834885C2.30697 0.700836 2.18811 0.605469 2.05078 0.605469H0.292969C0.131149 0.605469 0 0.736618 0 0.898437C0 1.06026 0.131149 1.19141 0.292969 1.19141H1.81579C1.85287 1.35841 2.81799 5.70152 2.87353 5.95138C2.56218 6.08673 2.34375 6.39717 2.34375 6.75781C2.34375 7.24243 2.73804 7.63671 3.22265 7.63671H8.53515C8.69697 7.63671 8.82812 7.50557 8.82812 7.34375C8.82812 7.18193 8.69697 7.05078 8.53515 7.05078H3.22265C3.06114 7.05078 2.92969 6.91932 2.92969 6.75781C2.92969 6.59652 3.06068 6.4653 3.22189 6.46492ZM9.31861 2.36328L8.31413 5.8789H3.45764L2.67639 2.36328H9.31861Z" fill="white"/>
<path d="M2.92969 8.51562C2.92969 9.00024 3.32397 9.39453 3.80859 9.39453C4.29321 9.39453 4.6875 9.00024 4.6875 8.51562C4.6875 8.03101 4.29321 7.63672 3.80859 7.63672C3.32397 7.63672 2.92969 8.03101 2.92969 8.51562ZM3.80859 8.22266C3.97011 8.22266 4.10156 8.35411 4.10156 8.51562C4.10156 8.67714 3.97011 8.80859 3.80859 8.80859C3.64708 8.80859 3.51562 8.67714 3.51562 8.51562C3.51562 8.35411 3.64708 8.22266 3.80859 8.22266Z" fill="white"/>
<path d="M7.07031 8.51562C7.07031 9.00024 7.4646 9.39453 7.94922 9.39453C8.43384 9.39453 8.82812 9.00024 8.82812 8.51562C8.82812 8.03101 8.43384 7.63672 7.94922 7.63672C7.4646 7.63672 7.07031 8.03101 7.07031 8.51562ZM7.94922 8.22266C8.11073 8.22266 8.24219 8.35411 8.24219 8.51562C8.24219 8.67714 8.11073 8.80859 7.94922 8.80859C7.7877 8.80859 7.65625 8.67714 7.65625 8.51562C7.65625 8.35411 7.7877 8.22266 7.94922 8.22266Z" fill="white"/>
</g>
<defs>
<clipPath id="clip0_1201_1501">
<rect width="10" height="10" fill="white"/>
</clipPath>
</defs>
</svg>
