<svg width="140" height="140" viewBox="0 0 140 140" fill="none" xmlns="http://www.w3.org/2000/svg">
<circle cx="70" cy="70" r="70" fill="white"/>
<path d="M29.674 77V64.4H34.66C35.698 64.4 36.517 64.589 37.117 64.967C37.723 65.339 38.155 65.819 38.413 66.407C38.671 66.995 38.8 67.604 38.8 68.234C38.8 68.678 38.725 69.125 38.575 69.575C38.425 70.019 38.185 70.43 37.855 70.808C37.525 71.186 37.096 71.489 36.568 71.717C36.046 71.945 35.41 72.059 34.66 72.059H31.492V77H29.674ZM31.492 70.358H34.768C35.308 70.358 35.737 70.25 36.055 70.034C36.379 69.818 36.61 69.548 36.748 69.224C36.886 68.9 36.955 68.57 36.955 68.234C36.955 67.934 36.892 67.619 36.766 67.289C36.646 66.953 36.427 66.671 36.109 66.443C35.791 66.215 35.344 66.101 34.768 66.101H31.492V70.358ZM40.5876 77V64.832L42.3786 64.004V77H40.5876ZM47.7063 77.216C46.7043 77.216 45.9153 76.943 45.3393 76.397C44.7693 75.845 44.4843 75.095 44.4843 74.147C44.4843 73.535 44.6283 73.001 44.9163 72.545C45.2043 72.089 45.6093 71.738 46.1313 71.492C46.6593 71.24 47.2773 71.114 47.9853 71.114C48.4173 71.114 48.8253 71.159 49.2093 71.249C49.5993 71.339 49.9563 71.474 50.2803 71.654V71.033C50.2803 70.385 50.1243 69.908 49.8123 69.602C49.5003 69.29 49.0233 69.134 48.3813 69.134C47.9373 69.134 47.4783 69.215 47.0043 69.377C46.5363 69.539 46.0833 69.767 45.6453 70.061L45.1233 68.594C45.6093 68.276 46.1553 68.03 46.7613 67.856C47.3733 67.676 47.9823 67.586 48.5883 67.586C49.7283 67.586 50.5803 67.868 51.1443 68.432C51.7143 68.996 51.9993 69.839 51.9993 70.961V77H50.2803V76.19C49.9383 76.52 49.5453 76.775 49.1013 76.955C48.6573 77.129 48.1923 77.216 47.7063 77.216ZM48.0303 75.668C48.4383 75.668 48.8373 75.575 49.2273 75.389C49.6233 75.197 49.9743 74.93 50.2803 74.588V73.166C49.9923 72.998 49.6653 72.866 49.2993 72.77C48.9333 72.674 48.5823 72.626 48.2463 72.626C47.6103 72.626 47.1093 72.764 46.7433 73.04C46.3773 73.31 46.1943 73.682 46.1943 74.156C46.1943 74.624 46.3563 74.993 46.6803 75.263C47.0043 75.533 47.4543 75.668 48.0303 75.668ZM55.3514 80.492L56.7554 76.793L53.3354 67.802H55.1534L57.3404 73.769C57.4064 73.919 57.4604 74.063 57.5024 74.201C57.5444 74.339 57.5864 74.489 57.6284 74.651C57.6764 74.489 57.7214 74.342 57.7634 74.21C57.8114 74.072 57.8624 73.925 57.9164 73.769L60.1394 67.802H61.9754L57.1784 80.492H55.3514ZM70.5648 77L66.1908 64.4H68.1438L71.0868 73.256C71.1408 73.406 71.1978 73.58 71.2578 73.778C71.3178 73.97 71.3718 74.165 71.4198 74.363C71.4618 74.171 71.5098 73.982 71.5638 73.796C71.6238 73.604 71.6808 73.424 71.7348 73.256L74.6148 64.4H76.5588L72.2028 77H70.5648ZM78.4598 77V67.802H80.2508V77H78.4598ZM79.3508 66.299C79.0508 66.299 78.7928 66.194 78.5768 65.984C78.3668 65.768 78.2618 65.51 78.2618 65.21C78.2618 64.904 78.3668 64.643 78.5768 64.427C78.7868 64.211 79.0448 64.103 79.3508 64.103C79.6628 64.103 79.9238 64.211 80.1338 64.427C80.3438 64.643 80.4488 64.904 80.4488 65.21C80.4488 65.516 80.3438 65.774 80.1338 65.984C79.9238 66.194 79.6628 66.299 79.3508 66.299ZM86.0949 77.216C84.9249 77.216 84.0009 76.787 83.3229 75.929C82.6449 75.065 82.3059 73.886 82.3059 72.392C82.3059 71.414 82.4619 70.565 82.7739 69.845C83.0859 69.125 83.5239 68.57 84.0879 68.18C84.6579 67.784 85.3299 67.586 86.1039 67.586C86.9799 67.586 87.7209 67.877 88.3269 68.459V64.832L90.1179 64.004V77H88.3269V76.271C87.7749 76.901 87.0309 77.216 86.0949 77.216ZM86.3649 75.524C86.7789 75.524 87.1539 75.431 87.4899 75.245C87.8259 75.053 88.1049 74.78 88.3269 74.426V70.313C88.1049 69.989 87.8199 69.734 87.4719 69.548C87.1299 69.356 86.7609 69.26 86.3649 69.26C85.6449 69.26 85.0899 69.53 84.6999 70.07C84.3099 70.61 84.1149 71.384 84.1149 72.392C84.1149 73.022 84.2079 73.574 84.3939 74.048C84.5799 74.516 84.8409 74.879 85.1769 75.137C85.5129 75.395 85.9089 75.524 86.3649 75.524ZM96.3077 77.216C95.4497 77.216 94.7087 77.012 94.0847 76.604C93.4667 76.196 92.9897 75.629 92.6537 74.903C92.3237 74.177 92.1587 73.34 92.1587 72.392C92.1587 71.384 92.3297 70.523 92.6717 69.809C93.0197 69.089 93.5027 68.54 94.1207 68.162C94.7447 67.778 95.4737 67.586 96.3077 67.586C97.0157 67.586 97.6607 67.742 98.2427 68.054C98.8307 68.36 99.2987 68.837 99.6467 69.485C100.001 70.127 100.178 70.952 100.178 71.96C100.178 72.104 100.172 72.278 100.16 72.482C100.154 72.68 100.139 72.884 100.115 73.094H93.9677C94.0157 73.604 94.1387 74.054 94.3367 74.444C94.5407 74.828 94.8107 75.128 95.1467 75.344C95.4827 75.56 95.8787 75.668 96.3347 75.668C96.7367 75.668 97.1027 75.599 97.4327 75.461C97.7627 75.317 98.0717 75.095 98.3597 74.795L99.4037 75.92C99.0437 76.298 98.6027 76.61 98.0807 76.856C97.5587 77.096 96.9677 77.216 96.3077 77.216ZM93.9587 71.6H98.3957C98.3837 71.114 98.2937 70.688 98.1257 70.322C97.9637 69.95 97.7267 69.659 97.4147 69.449C97.1087 69.239 96.7337 69.134 96.2897 69.134C95.6717 69.134 95.1407 69.332 94.6967 69.728C94.2527 70.124 94.0067 70.748 93.9587 71.6ZM106.028 77.216C104.756 77.216 103.754 76.787 103.022 75.929C102.29 75.065 101.924 73.892 101.924 72.41C101.924 71.42 102.089 70.565 102.419 69.845C102.755 69.125 103.229 68.57 103.841 68.18C104.459 67.784 105.188 67.586 106.028 67.586C106.874 67.586 107.603 67.781 108.215 68.171C108.833 68.555 109.307 69.107 109.637 69.827C109.967 70.547 110.132 71.402 110.132 72.392C110.132 73.388 109.964 74.246 109.628 74.966C109.298 75.686 108.827 76.241 108.215 76.631C107.603 77.021 106.874 77.216 106.028 77.216ZM106.028 75.524C106.748 75.524 107.309 75.248 107.711 74.696C108.119 74.144 108.323 73.376 108.323 72.392C108.323 71.408 108.119 70.64 107.711 70.088C107.309 69.536 106.748 69.26 106.028 69.26C105.308 69.26 104.744 69.536 104.336 70.088C103.934 70.64 103.733 71.414 103.733 72.41C103.733 73.388 103.934 74.153 104.336 74.705C104.744 75.251 105.308 75.524 106.028 75.524Z" fill="#FF3600"/>
</svg>
